<?xml version="1.0"?><svg width="1022" height="978" xmlns="http://www.w3.org/2000/svg">
 <g>
  <title>Layer 1</title>
  <path d="m500,495l8.5,6l0.299988,0.200012l0.200012,0.299988l3.5,0.299988l3.5,0.200012l0.200012,-1l0.299988,-1l0,-2.5l0,-2.5l-0.5,-2q-0.5,-2 -1.5,-5.5q-1,-3.5 -6.5,-16.5q-5.5,-13 -6,-22q-0.5,-9 0.5,-12.5q1,-3.5 3,-6q2,-2.5 7.5,-7q5.5,-4.5 14.200012,-8.299988q8.799988,-3.700012 23.799988,-4.200012q15,-0.5 25,2q10,2.5 17,6q7,3.5 12.799988,9.200012q5.700012,5.799988 10.200012,12.799988q4.5,7 8,16.5q3.5,9.5 4,19q0.5,9.5 -2.5,23.5q-3,14 -11,30q-8,16 -13.700012,22.799988q-5.799988,6.700012 -9.299988,11q-3.5,4.200012 -9,8q-5.5,3.700012 -15.5,8.700012q-10,5 -22.5,8q-12.5,3 -39.5,3.5q-27,0.5 -35.5,-1q-8.5,-1.5 -16,-4q-7.5,-2.5 -12.5,-6.5q-5,-4 -10.5,-12q-5.5,-8 -12.299988,-20.299988q-6.700012,-12.200012 -14.200012,-30.200012q-7.5,-18 -10.5,-28.5q-3,-10.5 -3.5,-24.5q-0.5,-14 0.5,-19.5q1,-5.5 4.5,-17q3.5,-11.5 9.5,-23q6,-11.5 14.5,-23q8.5,-11.5 25.5,-29q17,-17.5 19.700012,-19q2.799988,-1.5 3,-2.5q0.299988,-1 3,-2.799988q2.799988,-1.700012 14,-10q11.299988,-8.200012 23.299988,-15.200012q12,-7 26.700012,-12.799988q14.799988,-5.700012 26.299988,-8.200012q11.5,-2.5 30.5,-3q19,-0.5 25.5,0.5q6.5,1 23,5q16.5,4 32.5,12q16,8 26,15q10,7 14,11.700012q4,4.799988 5,5q1,0.299988 7.5,7.799988q6.5,7.5 14.299988,19.799988q7.700012,12.200012 11.200012,22.200012q3.5,10 7,33q3.5,23 3.5,59.5q0,36.5 -2.5,52.5q-2.5,16 -8,31q-5.5,15 -11.5,25.5q-6,10.5 -15,22q-9,11.5 -18.5,21q-9.5,9.5 -23,20q-13.5,10.5 -27.200012,19.299988q-13.799988,8.700012 -29.799988,17.200012q-16,8.5 -38,17.5q-22,9 -44.5,15q-22.5,6 -47.5,10q-25,4 -52.5,4q-27.5,0 -36,-1.5q-8.5,-1.5 -25.5,-6q-17,-4.5 -33.5,-12.5q-16.5,-8 -27.5,-15.5q-11,-7.5 -22,-17.5q-11,-10 -22.5,-23.5q-11.5,-13.5 -20.699997,-29.200012q-9.300003,-15.799988 -14.800003,-31.299988q-5.5,-15.5 -9,-32.5q-3.5,-17 -4.5,-36.5q-1,-19.5 0.5,-40.5q1.5,-21 5.5,-41q4,-20 9.5,-36q5.5,-16 13.5,-32q8,-16 15,-27q7,-11 19,-25q12,-14 30.299988,-30.799988q18.200012,-16.700012 19.700012,-18.400024q1.5,-1.799988 15.299988,-11.799988q13.700012,-10 25,-17.199997q11.200012,-7.300003 24.200012,-13.300003q13,-6 24.5,-6.5q11.5,-0.5 18,2q6.5,2.5 8.5,4.800003q2,2.199997 3,2.399994q1,0.300003 4.200012,6.600006q3.299988,6.199997 3.799988,17.699997q0.5,11.5 -3,24.5q-3.5,13 -9.200012,22.5q-5.799988,9.5 -6.799988,9.700012q-1,0.299988 -5.200012,5q-4.299988,4.799988 -11.599976,9q-7.200012,4.299988 -17.700012,12.799988q-10.5,8.5 -21.5,19.5q-11,11 -17.5,19.700012q-6.5,8.799988 -7.5,9q-1,0.299988 -9.5,14.799988q-8.5,14.5 -14.700012,29.799988q-6.299988,15.200012 -10.299988,34.700012q-4,19.5 -4.5,35.5q-0.5,16 1.5,29q2,13 7,26.5q5,13.5 12.5,25.5q7.5,12 11.200012,15.5q3.799988,3.5 4,4.5q0.299988,1 3,3q2.799988,2 3,3q0.299988,1 7,6.799988q6.799988,5.700012 11.299988,8q4.5,2.200012 4.5,3.200012q0,1 11.799988,6q11.700012,5 28,8.799988q16.200012,3.700012 32.200012,4.200012q16,0.5 35,-2.5q19,-3 30.5,-7q11.5,-4 23,-9.5q11.5,-5.5 14.5,-7q3,-1.5 8.5,-5q5.5,-3.5 17.5,-13q12,-9.5 15.5,-13.200012q3.5,-3.799988 4.5,-4q1,-0.299988 6,-6q5,-5.799988 6.200012,-6.299988q1.299988,-0.5 13.799988,-17q12.5,-16.5 21,-33.5q8.5,-17 13.5,-34q5,-17 7,-33.5q2,-16.5 1,-34q-1,-17.5 -3.299988,-19.5q-2.200012,-2 -2.400024,-3q-0.299988,-1 -6.299988,-8q-6,-7 -12.5,-12.5q-6.5,-5.5 -15.799988,-10.700012q-9.200012,-5.299988 -19.700012,-8.299988q-10.5,-3 -23.5,-3.5q-13,-0.5 -26,2q-13,2.5 -26.5,8q-13.5,5.5 -26.5,12.5q-13,7 -21.799988,14.299988q-8.700012,7.200012 -12.400024,10.700012q-3.799988,3.5 -5.799988,7.299988q-2,3.700012 -4.799988,10.400024q-2.700012,6.799988 -3.200012,18.799988q-0.5,12 1,17.5q1.5,5.5 5.5,14.5q4,9 9,14q5,5 13.5,11z" stroke-width="9" stroke="#ffffff" fill-rule="evenodd" fill="#FED102" id="svg_2"/>
  <path d="m671,713q8,-0.5 14.5,2q6.5,2.5 13.5,8.5q7,6 15.200012,16.299988q8.299988,10.200012 17.599976,25.400024q9.200012,15.299988 31.400024,64q22.299988,48.799988 22.799988,54.799988q0.5,6 -0.5,9.5q-1,3.5 -5.700012,8.700012q-4.799988,5.299988 -10.799988,8.299988q-6,3 -12.5,3.5q-6.5,0.5 -10.5,-1q-4,-1.5 -17,-12.799988q-13,-11.200012 -17,-16.400024q-4,-5.299988 -15.799988,-20.599976q-11.700012,-15.200012 -23.200012,-35.200012q-11.5,-20 -21.5,-45q-10,-25 -10,-37.5q0,-12.5 3.299988,-18q3.200012,-5.5 5,-6.5q1.700012,-1 7.400024,-4.200012q5.799988,-3.299988 13.799988,-3.799988z" stroke-width="9" stroke="#ffffff" fill-rule="evenodd" fill="#FED102" id="svg_3"/>
  <path d="m558.5,11.8l5.5,-4.8l7.5,0l7.5,0l0,0.2l0,0.3l2,0.5l2,0.5l1,0.5l1,0.5l1,0.5q1,0.5 3,1.5q2,1 4.5,3.5q2.5,2.5 6.299988,9.200001q3.700012,6.799999 3.700012,26.299999q0,19.5 -2,37q-2,17.5 -5.5,38.5q-3.5,21 -9,40.5q-5.5,19.5 -9,27q-3.5,7.5 -9.200012,14q-5.799988,6.5 -9.299988,7.699997q-3.5,1.300003 -10.5,1.300003q-7,0 -13,-3.300003q-6,-3.199997 -7.799988,-6.199997q-1.700012,-3 -4.200012,-10q-2.5,-7 -3,-33q-0.5,-26 1,-41q1.5,-15 5,-33q3.5,-18 9,-35q5.5,-17 11.200012,-27.799999q5.799988,-10.700001 11.299988,-15.400001z" stroke-width="9" stroke="#ffffff" fill-rule="evenodd" fill="#FED102" id="svg_4"/>
  <path d="m9.2,475.799988l-0.2,-0.299988l-0.2,-0.299988l-0.3,-0.200012l-0.3,-0.200012l-0.2,-0.299988l-0.2,-0.299988l-0.3,-0.200012l-0.3,-0.200012l-0.2,-0.299988l-0.2,-0.299988l-0.3,-0.200012l-0.5,-1.5l-0.5,-1.5l-0.3,0l-0.2,0l0,-5.5l0,-5.5l0.2,0l0.3,0l0.5,-1.5l0.5,-1.5l0.5,-1l0.5,-1l0.5,-1l0.5,-1l7.3,-6.200012q7.2,-6.299988 24.7,-11.799988q17.5,-5.5 33.5,-7q16,-1.5 43,-0.5q27,1 44.5,5q17.5,4 25.699997,7.700012q8.300003,3.799988 12.800003,6.799988q4.5,3 8,8.5q3.5,5.5 3,11q-0.5,5.5 -2.800003,9.299988q-2.199997,3.700012 -10.699997,9.200012q-8.5,5.5 -20,9q-11.5,3.5 -33,6q-21.5,2.5 -44,1.5q-22.5,-1 -38.5,-4q-16,-3 -30.5,-8.299988q-14.5,-5.200012 -14.5,-6.200012q0,-1 -3.8,-3.5q-3.7,-2.5 -4,-2.700012z" stroke-width="9" stroke="#ffffff" fill-rule="evenodd" fill="#FED102" id="svg_5"/>
  <path d="m796.331604,589q13.596985,-0.539978 25.625,3.23999q12.028076,3.780029 25.625,11.340027q13.596985,7.559998 32.946472,20.195984q19.349487,12.744019 19.349487,13.823975q0,1.080017 2.614807,2.376038q2.614746,1.403992 6.275513,3.23999q3.660706,1.94397 3.869873,3.023987q0.313782,1.080017 25.102051,19.223999q24.892822,18.036011 28.86731,22.679993q3.869934,4.536011 4.392883,12.096008q0.522949,7.559998 -2.614807,17.280029q-3.137756,9.719971 -7.635193,14.903992q-4.392883,5.075989 -12.760193,5.075989q-8.367371,0 -23.010193,-7.559998q-14.642883,-7.559998 -47.066345,-25.380005q-32.423462,-17.820007 -38.176025,-20.736023q-5.752563,-3.023987 -5.752563,-4.103943q0,-1.080017 -1.045898,-1.296021q-1.045898,-0.324036 -25.625,-15.984009q-24.579102,-15.659973 -30.017883,-20.304016q-5.543335,-4.536011 -8.158142,-8.855957q-2.614807,-4.320007 -3.137756,-12.420044q-0.522949,-8.099976 0.522949,-10.799988q1.045898,-2.700012 3.137756,-7.02002q2.091858,-4.320007 7.635193,-8.856018q5.438782,-4.643982 19.035706,-5.18396z" stroke-width="9" stroke="#ffffff" fill-rule="evenodd" fill="#FED102" id="svg_6"/>
  <path d="m224.055557,29.835114l0.222214,-0.335114l3.333328,0q3.333344,0 8.333344,2.792618q5,2.792618 11.111099,8.936386q6.111115,6.143768 18.555573,23.681427q12.555542,17.649368 15.111084,22.676086q2.444458,5.026733 3.555573,5.026733q1.111115,0 7.222229,12.064117q6.111115,11.952423 16.333344,35.075302q10.333313,23.234604 15.888885,42.782974q5.555542,19.54834 7.777771,34.628479q2.222229,15.080139 0,20.665405q-2.222229,5.585236 -5.888885,8.042725q-3.555573,2.569214 -8.555573,3.127747q-5,0.558533 -11.111084,-1.117035q-6.111115,-1.675568 -12.222229,-5.808655q-6.111115,-4.244781 -6.333344,-5.361847q-0.333344,-1.117035 -5.111084,-5.361816q-4.666687,-4.133087 -17.444458,-18.654724q-12.777802,-14.521606 -21.666687,-27.926208q-8.888885,-13.404572 -11.666656,-18.431274q-2.777786,-5.026733 -7.000015,-14.298218q-4.111099,-9.159805 -8.555542,-25.35701q-4.444443,-16.197205 -4.444443,-37.421127q0,-21.223907 3.333328,-35.187027q3.333328,-13.963104 6.111115,-18.989822q2.777771,-5.026718 3.111115,-5.250122z" stroke-width="9" stroke="#ffffff" fill-rule="evenodd" fill="#FED102" id="svg_7"/>
  <path d="m1005.000488,413.138947l3.437134,7.370026l0.520813,4.335327l0.520752,4.335327l0.3125,0l0.208313,0l0,2.709595l0,2.709564l-0.208313,0l-0.3125,0l-0.520752,3.793427l-0.520813,3.793427l-0.520752,1.083832q-0.520813,1.083832 -1.562378,3.251495q-1.041565,2.167664 -4.478699,5.635925q-3.333069,3.57663 -13.227966,7.911957q-9.894958,4.335358 -31.247131,10.296417q-21.352173,5.96109 -60.411072,13.547913q-39.058899,7.586823 -57.80719,7.586823q-18.74823,0 -26.039246,-3.251495q-7.291016,-3.251495 -13.019653,-7.044922q-5.728638,-3.793396 -10.728149,-9.971252q-4.895386,-6.286224 -4.895386,-13.873047q0,-7.586823 4.16626,-11.92215q4.166321,-4.335327 10.41571,-8.128754q6.249451,-3.793427 24.685242,-10.513184q18.539978,-6.828125 41.975281,-12.247284q23.435364,-5.419159 46.870667,-8.670685q23.435364,-3.251495 49.995361,-4.877228q26.560059,-1.625763 32.809509,1.625732q6.24939,3.251495 9.582458,10.513214z" stroke-width="9" stroke="#ffffff" fill-rule="evenodd" fill="#FED102" id="svg_8"/>
  <path d="m526.768433,964.759521l-0.336121,0.201904l-0.33606,0.201965l-0.22406,0.302856l-1.1203,0.504822l-1.1203,0.504822l-1.1203,0.504822l-1.1203,0.504822l-1.1203,0.504822l-1.1203,0.504822l0,0.302856l0,0.201965l-5.601501,0l-5.601532,0l0,-0.201965l0,-0.302856l-1.1203,-0.504822l-1.1203,-0.504822l-1.1203,-0.504822l-1.1203,-0.504822l-0.22406,-0.302856l-0.33609,-0.201965l-0.33606,-0.201904l-0.224091,-0.302917l-1.1203,-0.302856q-1.1203,-0.201965 -4.705261,-5.250122q-3.696991,-5.048218 -7.057892,-13.630127q-3.360901,-8.581909 -6.161652,-20.697571q-2.800751,-12.115662 -2.800751,-53.006042q0,-40.890381 4.481201,-63.102417q4.481201,-22.212036 8.962402,-31.803589q4.481201,-9.591614 6.385742,-12.418579q2.01651,-2.726013 3.13681,-3.028931q1.1203,-0.201904 1.68045,-1.413513q0.56015,-1.3125 6.721802,-1.3125q6.161682,0 11.763184,3.533752q5.601501,3.533691 9.858643,8.279053q4.145081,4.846252 9.186462,15.952271q5.041321,11.106018 8.962402,32.308411q3.921082,21.202393 3.360901,44.928894q-0.560181,23.726563 -3.921082,42.404846q-3.360901,18.678345 -7.281921,29.279541q-3.921082,10.601196 -7.842102,16.658997q-3.921082,6.057861 -6.497742,8.884827q-2.464661,2.726013 -2.688721,3.028931z" stroke-width="9" stroke="#ffffff" fill-rule="evenodd" fill="#FED102" id="svg_9"/>
  <path d="m359.506653,744q7.497803,-0.510803 11.782227,2.043213q4.284454,2.554077 7.283539,7.355713q2.892029,4.903748 3.427582,14.098389q0.535553,9.19458 -1.071106,19.410767q-1.606659,10.216248 -6.962219,25.540588q-5.35556,15.32428 -14.995575,34.735107q-9.639984,19.410828 -22.171997,37.799988q-12.639099,18.389221 -13.710205,18.593567q-1.071106,0.306458 -5.891113,6.1297q-4.820007,5.925415 -7.497772,7.764282q-2.677795,1.736816 -12.31778,8.377319q-9.640015,6.640564 -16.602234,7.151367q-6.962219,0.510803 -10.389801,-1.225952q-3.534637,-1.838928 -6.212402,-5.925415q-2.677795,-4.086487 -2.677795,-18.899963q0,-14.813538 4.284454,-30.137878q4.284424,-15.32428 10.71109,-31.670227q6.426666,-16.345947 16.066681,-33.202759q9.639984,-16.85675 21.74353,-32.691833q11.99646,-15.835144 17.35202,-20.125977q5.35556,-4.392944 12.853333,-9.501099q7.497772,-5.108093 14.995544,-5.618896z" stroke-width="9" stroke="#ffffff" fill-rule="evenodd" fill="#FED102" id="svg_10"/>
  <path d="m36.547741,202.199997q12.932259,0.385849 38.334927,9.389023q25.402672,9.003189 47.918663,20.578705q22.516006,11.575516 35.448273,19.678375q13.047729,7.974243 28.4048,18.520813q15.241608,10.675201 18.705597,12.861725q3.464005,2.315094 5.773331,5.144653q2.309341,2.958191 10.161072,11.575531q7.736267,8.745941 11.777603,15.819855q4.041321,7.073914 5.773331,12.218597q1.731995,5.144684 1.154663,12.218597q-0.577332,7.073944 -3.233078,11.961334q-2.540253,4.75885 -8.313583,8.617371q-5.773331,3.85849 -20.206665,3.215424q-14.433334,-0.643097 -34.639999,-9.003174q-20.206665,-8.360077 -33.138931,-16.462921q-13.047729,-7.974304 -33.023476,-22.379395q-19.860268,-14.533691 -31.637871,-25.208862q-11.893066,-10.5466 -24.017056,-24.694458q-12.124001,-14.147858 -20.206671,-28.295715q-8.082661,-14.147842 -8.082661,-25.080276q0,-10.932434 13.047731,-10.675201z" stroke-width="9" stroke="#ffffff" fill-rule="evenodd" fill="#FED102" id="svg_11"/>
  <path d="m864.633972,153q2.764771,-0.601639 11.612122,0.601624q8.847351,1.203247 12.718079,4.21138q3.870728,3.008133 9.621521,10.588623q5.861328,7.460159 6.414307,17.086182q0.552979,9.626007 -0.552979,12.032516q-1.105896,2.406494 -5.529602,7.821136q-4.423645,5.414627 -11.39093,12.032516q-6.856689,6.617889 -7.077881,7.821136q-0.331787,1.203262 -12.165161,12.273178q-11.943909,11.190247 -15.814575,15.642288q-3.870728,4.572342 -19.906555,16.364212q-16.035828,11.671539 -32.624634,20.695953q-16.588745,9.024384 -29.306824,10.829254q-12.718079,1.804871 -19.906555,0q-7.188477,-1.804871 -11.833374,-5.775604q-4.755432,-3.850403 -8.073181,-8.663422q-3.317749,-4.813019 -3.317749,-12.634155q0,-7.821136 3.317749,-13.235748q3.317749,-5.414642 5.861389,-7.821152q2.432983,-2.406509 5.971985,-7.219513q3.649475,-4.813004 18.358215,-17.808136q14.598145,-12.874786 16.257019,-14.920319q1.658875,-2.165863 5.197815,-3.970734q3.649536,-1.804886 32.403442,-22.260162q28.753906,-20.455292 37.932983,-26.712189q9.068542,-6.377243 11.833374,-6.978867z" stroke-width="9" stroke="#ffffff" fill-rule="evenodd" fill="#FED102" id="svg_12"/>
  <path d="m203.591553,636q13.859146,-0.623779 17.323944,0.997986q3.464783,1.49707 5.543655,4.615906q1.963379,3.118774 2.540848,11.85144q0.577469,8.732666 -1.732391,13.722778q-2.30986,4.990112 -8.084503,14.346558q-5.774658,9.356445 -18.825363,22.081177q-12.935211,12.849487 -18.132385,16.217834q-5.197189,3.493042 -5.197189,4.740601q0,1.247498 -9.470413,6.861389q-9.585922,5.613831 -24.946487,14.096985q-15.245064,8.358459 -26.794357,12.101013q-11.549301,3.742554 -21.366203,4.366333q-9.816895,0.623779 -15.014076,-1.247498q-5.197189,-1.871338 -8.661972,-4.990112q-3.46479,-3.118835 -4.8507,-7.73468q-1.501411,-4.740601 -0.92395,-9.106934q0.577469,-4.366333 4.042252,-10.603943q3.46479,-6.23761 18.132393,-22.205933q14.783112,-15.843567 25.754929,-24.202026q10.971832,-8.483154 10.971832,-9.730652q0,-1.247559 7.853531,-5.613892q7.738022,-4.366333 20.442245,-11.85144q12.704224,-7.485168 25.061966,-12.724792q12.473236,-5.364319 26.332397,-5.988098z" stroke-width="9" stroke="#ffffff" fill-rule="evenodd" fill="#FED102" id="svg_13"/>
 </g>
</svg>